<svg version="1" xmlns="http://www.w3.org/2000/svg" width="853.333" height="853.333" viewBox="0 0 640.000000 640.000000"><path d="M324 92.2c-2.5.5-6.6.6-9.1.3-6.7-.8-6.9.4-3.4 19.5.8 4.1 1.5 10.9 1.7 15l.3 7.5-18.5-.3c-10.2-.1-19.8-.5-21.4-.8-1.6-.4-3.1-.1-3.5.5-1.2 1.8-.2 25.6 1 26 .7.2 3.5-.1 6.3-.7 2.8-.7 11.6-1.4 19.7-1.6l14.5-.5 1.1 7.7c.6 4.8.7 10.1.2 14.2-.5 3.6-1.4 21.3-1.9 39.5-1 31.9-2.6 71.6-3.9 94.2-.1 1.5-2.4 3.9-7.3 7.6-16.1 11.9-29.2 19.9-65 39.7-14.6 8.1-28.6 16.1-31 17.8-4.8 3.3-32.4 17.2-34.2 17.2-1.7 0-13.3-19.2-14.9-24.7-.8-2.7-2.5-6.9-3.6-9.2-2.5-4.7-2.7-4.7-10.5 1.7-2.6 2.1-6.7 4.9-9.1 6.1-4.3 2.1-5.9 5.1-3.6 6.6 1.5.9 17.7 22.7 19.5 26.4 1.7 3.2 1.7 3.4-.4 5.6-1.2 1.3-5.1 3.5-8.7 5-3.5 1.4-9.2 4.3-12.6 6.4-3.4 2.1-7.5 4.1-9 4.5-4.1 1-4.4 3.2-1 7.9 1.7 2.3 4.7 7.5 6.7 11.4 2.2 4.5 4.2 7.3 5.2 7.3.9 0 4.1-2.3 7.1-5 3.1-2.8 7.3-6 9.5-7.1 2.1-1.1 5.6-3.5 7.6-5.3 4.7-4.1 8.3-6.6 9.7-6.6.6 0 2.7 3.5 4.7 7.7 2 4.3 4.3 9.4 5.2 11.3 2.8 5.9 8.7 15.1 10.1 15.6.7.3 3-.5 5.2-1.9 2.1-1.3 4.9-2.8 6.3-3.2 3.7-1.2 10-5.6 10-7 0-.7-.8-1.9-1.7-2.6-.9-.8-3.7-4.6-6.1-8.4-2.5-3.9-5.7-8.6-7.2-10.5-1.5-1.9-3.6-5.6-4.8-8.2l-2-4.6 10.1-5.2c5.6-2.9 16.1-8.2 23.2-11.9 7.2-3.6 14.4-7.6 16.1-8.8 1.7-1.2 6.4-3.8 10.5-5.7 8.1-3.9 15.1-7.8 18.8-10.7 2.7-2.2 24.8-12.9 32.9-16 1.3-.5 4.3-2.3 6.8-4 5.4-3.7 16.4-8 21.9-8.6 4.3-.5 9.7 1.8 27 11.2 3.9 2.1 11.1 6 16.2 8.7 12.4 6.4 37.6 21.6 49.1 29.5 5.1 3.5 13 8.3 17.5 10.6 4.5 2.3 12.8 7 18.3 10.5l10.1 6.4-5.5 10.6c-5.6 10.9-12.2 20.6-15.4 22.6-4.1 2.5-1.4 5.4 6.7 7.2 1.7.4 5.4 2.2 8.4 4.1 5.7 3.7 8.4 3.9 9 .8.6-3.6 10.3-25.9 12.9-29.8 1.7-2.6 3.1-3.7 4.2-3.4 1.7.4 25.1 15.8 30.3 19.9 3.7 3 5.4 1.8 8.6-5.9 1.4-3.3 4-8.3 5.8-11.1l3.2-5.2-2.2-1.4c-1.2-.7-3.5-1.7-5.2-2.1-3.2-.7-25.8-11.5-28.9-13.8-1.8-1.3-1.7-1.6 2.1-7.3 2.2-3.2 5-7.9 6.3-10.4 1.2-2.5 4.4-7.1 7.1-10.2 2.7-3.1 4.9-6.1 4.9-6.7 0-.6-2.1-2.2-4.7-3.6-2.7-1.4-7.3-4.4-10.3-6.6-5.8-4.2-9.3-4.7-9.8-1.4-.5 3.9-11.3 25.3-16.7 33.3-.3.3-17.7-9.9-26-15.3-3.3-2.1-10.3-6.7-15.6-10.2-5.2-3.4-14.9-9.2-21.5-12.9-6.5-3.7-14.4-8.1-17.4-9.8-5.8-3.2-14.9-9.5-25.9-17.8-3.6-2.6-7-4.8-7.7-4.8-1.8 0-17.1-11.6-18.7-14.2-1.6-2.5-2.7-15.5-3.4-40.8-.8-24.8-.8-28.8 0-53.5.5-13.2.8-33.1.8-44.3V156h14.4c9.5 0 16.3.5 20.1 1.5 6 1.6 10.4 1.1 10.4-1 0-.7-.7-4.1-1.6-7.5-1.1-4.3-1.4-8-.9-12.1l.7-5.8-10.9.5c-5.9.3-12.1 1-13.7 1.5-3.7 1.1-16.3 1.2-17 0-.5-.7.7-22.2 1.8-34.3.8-7.6-2.5-9.1-14.4-6.6z"/><path d="M405.4 200.4c-.4 1.1.8 3.2 3.9 6.5 3.8 4.1 4.6 5.6 5.2 10.2 1 8.1 1.2 72 .2 74.9-.4 1.4-3 4.2-5.8 6.3-5.3 4.2-6.3 7.1-2.6 8.3 1.2.4 6 .6 10.7.4 10.1-.3 15.5-.3 23.2.2 4.3.2 6.1-.1 7.4-1.3 2.1-2.2 1.1-5-2.6-7.1-7.2-4.1-7.9-7.9-8.5-51.1-.5-31.7-.5-31.8 6-39.5 5.2-6.2 3-7.9-11-8.1-5.5 0-13.5-.4-17.7-.7-6.7-.6-7.9-.4-8.4 1zM202.4 201.4c-8.5 2.7-16.5 7.9-23.4 15.3-5.8 6.2-7.3 8.7-10.6 17-3.6 9.1-3.9 10.5-3.8 19.8 0 15.6 4.2 26 14.9 37.4 7.1 7.5 11.5 9.9 24.2 13.2 17 4.3 33.5 1 44.4-8.8 6.9-6.2 10.1-15.3 5.7-16.1-.9-.2-4.1 1.6-7 4-7.8 6.3-14.8 9.1-23.3 9.1-12.8.1-18.4-3-26.7-14.8-6.2-8.9-7.2-12.8-6.5-27.4.5-11.7.8-13.4 3.5-18.7 4.4-8.7 10.3-14 18-16.4 8.3-2.6 16.5-2.6 20.6-.1 3.3 2.1 9.6 9.8 11.7 14.4 2.4 5.3 8.9 4.4 8.9-1.3 0-3.4-1.6-11.5-3.6-18.6-1.5-5.5-2.3-6.1-10.9-8.3-5.6-1.5-31.1-1.3-36.1.3zM294 404.3c-8.9 3-14.8 6.7-20.9 13-6.9 7.2-7.7 8.3-12.3 19-3.7 8.6-4 9.9-4 18.7-.1 15.9 4.6 27.3 16.1 39.3 8.5 8.9 21.7 13.7 37.8 13.7 11.3 0 18.4-1.9 25.6-6.9 8.7-5.9 14.5-15.2 11.7-18.6-1.8-2.1-2.2-2-7.6 2.5-10.8 8.9-24.3 12.2-35.5 8.5-6.4-2.1-7.7-3.1-13.6-10.7-6.2-8.1-8.4-13.7-9-22.7-.6-9.2 1.7-22.8 4.9-28 3.8-6.4 9.9-12 15.6-14.1 6.4-2.4 17.9-2.7 22.1-.6 2.8 1.5 10.2 10.5 12.3 15.1 2.2 4.8 8.8 4.1 8.8-.9 0-3.3-3.6-19.7-5.1-22.8-.7-1.6-2.5-3.2-4.3-3.7-11.5-3.7-32.8-4.1-42.6-.8z"/><path d="M368.5 432c-5.9 1.5-9.3 3.6-13.9 8.8-4.8 5.5-7.6 10.9-7.6 14.7 0 3.7 4.6 12.8 8.2 16.1 5.7 5.5 9.3 6.7 17.4 6.2 9.3-.6 14.6-3.6 19.8-11.2 3.7-5.5 3.8-5.7 3.5-13.3-.4-6.7-.9-8.5-3.4-12.3-5.1-7.7-14.8-11.4-24-9zm9.6 11.6c2.1 2.2 2.4 3.7 2.7 10.7.2 6.9 0 8.7-1.7 11.4-1.9 3-2.5 3.3-7.1 3.3-5 0-5.1-.1-7-4.3-2.8-6.1-2.8-17.5.1-21.1 2.9-3.7 9.5-3.7 13 0zM362.5 488.5c-2.9 2.8-3.2 5.7-.8 7.6 2.4 2 17.1 2 19.4-.1 2.9-2.5 3.3-5.6 1-7.9-1.8-1.8-3.4-2.1-9.6-2.1-6.7 0-7.9.3-10 2.5z"/></svg>